<mxfile host="65bd71144e">
    <diagram id="ns5UzAjRGoKsix2EQ4FU" name="Page-1">
        <mxGraphModel dx="659" dy="433" grid="1" gridSize="10" guides="1" tooltips="1" connect="1" arrows="1" fold="1" page="1" pageScale="1" pageWidth="827" pageHeight="1169" math="0" shadow="0">
            <root>
                <mxCell id="0"/>
                <mxCell id="1" parent="0"/>
                <mxCell id="2" value="资产" style="whiteSpace=wrap;html=1;fillColor=#60a917;fontColor=#ffffff;strokeColor=#2D7600;" parent="1" vertex="1">
                    <mxGeometry x="40" y="30" width="120" height="60" as="geometry"/>
                </mxCell>
                <mxCell id="3" value="=" style="text;html=1;align=center;verticalAlign=middle;resizable=0;points=[];autosize=1;strokeColor=none;fillColor=none;" vertex="1" parent="1">
                    <mxGeometry x="190" y="50" width="20" height="20" as="geometry"/>
                </mxCell>
                <mxCell id="4" value="负债" style="whiteSpace=wrap;html=1;fillColor=#60a917;fontColor=#ffffff;strokeColor=#2D7600;" vertex="1" parent="1">
                    <mxGeometry x="250" y="30" width="120" height="60" as="geometry"/>
                </mxCell>
                <mxCell id="5" value="+" style="text;html=1;align=center;verticalAlign=middle;resizable=0;points=[];autosize=1;strokeColor=none;fillColor=none;" vertex="1" parent="1">
                    <mxGeometry x="420" y="50" width="20" height="20" as="geometry"/>
                </mxCell>
                <mxCell id="6" value="所有者权益&lt;br&gt;（未分配利润、沉淀利润" style="whiteSpace=wrap;html=1;fillColor=#60a917;fontColor=#ffffff;strokeColor=#2D7600;" vertex="1" parent="1">
                    <mxGeometry x="480" y="30" width="120" height="60" as="geometry"/>
                </mxCell>
                <mxCell id="7" value="收入" style="whiteSpace=wrap;html=1;fillColor=#6a00ff;fontColor=#ffffff;strokeColor=#3700CC;" vertex="1" parent="1">
                    <mxGeometry x="40" y="120" width="120" height="60" as="geometry"/>
                </mxCell>
                <mxCell id="8" value="-" style="text;html=1;align=center;verticalAlign=middle;resizable=0;points=[];autosize=1;strokeColor=none;fillColor=none;" vertex="1" parent="1">
                    <mxGeometry x="190" y="140" width="20" height="20" as="geometry"/>
                </mxCell>
                <mxCell id="9" value="费用" style="whiteSpace=wrap;html=1;fillColor=#6a00ff;fontColor=#ffffff;strokeColor=#3700CC;" vertex="1" parent="1">
                    <mxGeometry x="250" y="120" width="120" height="60" as="geometry"/>
                </mxCell>
                <mxCell id="10" value="=" style="text;html=1;align=center;verticalAlign=middle;resizable=0;points=[];autosize=1;strokeColor=none;fillColor=none;" vertex="1" parent="1">
                    <mxGeometry x="413.5" y="140" width="20" height="20" as="geometry"/>
                </mxCell>
                <mxCell id="12" style="edgeStyle=orthogonalEdgeStyle;html=1;exitX=1;exitY=0.5;exitDx=0;exitDy=0;entryX=1;entryY=0.5;entryDx=0;entryDy=0;" edge="1" parent="1" source="11" target="6">
                    <mxGeometry relative="1" as="geometry">
                        <Array as="points">
                            <mxPoint x="640" y="140"/>
                            <mxPoint x="640" y="60"/>
                        </Array>
                    </mxGeometry>
                </mxCell>
                <mxCell id="11" value="利润" style="whiteSpace=wrap;html=1;fillColor=#6a00ff;fontColor=#ffffff;strokeColor=#3700CC;" vertex="1" parent="1">
                    <mxGeometry x="460" y="120" width="120" height="60" as="geometry"/>
                </mxCell>
                <mxCell id="13" value="年末" style="text;html=1;align=center;verticalAlign=middle;resizable=0;points=[];autosize=1;strokeColor=none;fillColor=none;" vertex="1" parent="1">
                    <mxGeometry x="640" y="90" width="40" height="20" as="geometry"/>
                </mxCell>
                <mxCell id="14" value="资产" style="whiteSpace=wrap;html=1;fillColor=#60a917;fontColor=#ffffff;strokeColor=#2D7600;" vertex="1" parent="1">
                    <mxGeometry x="40" y="220" width="120" height="60" as="geometry"/>
                </mxCell>
                <mxCell id="15" value="费用" style="whiteSpace=wrap;html=1;fillColor=#6a00ff;fontColor=#ffffff;strokeColor=#3700CC;" vertex="1" parent="1">
                    <mxGeometry x="220" y="220" width="120" height="60" as="geometry"/>
                </mxCell>
                <mxCell id="16" value="+" style="text;html=1;align=center;verticalAlign=middle;resizable=0;points=[];autosize=1;strokeColor=none;fillColor=none;" vertex="1" parent="1">
                    <mxGeometry x="170" y="240" width="20" height="20" as="geometry"/>
                </mxCell>
                <mxCell id="17" value="=" style="text;html=1;align=center;verticalAlign=middle;resizable=0;points=[];autosize=1;strokeColor=none;fillColor=none;" vertex="1" parent="1">
                    <mxGeometry x="360" y="230" width="20" height="20" as="geometry"/>
                </mxCell>
                <mxCell id="18" value="负债" style="whiteSpace=wrap;html=1;fillColor=#60a917;fontColor=#ffffff;strokeColor=#2D7600;" vertex="1" parent="1">
                    <mxGeometry x="400" y="210" width="120" height="60" as="geometry"/>
                </mxCell>
                <mxCell id="19" value="+" style="text;html=1;align=center;verticalAlign=middle;resizable=0;points=[];autosize=1;strokeColor=none;fillColor=none;" vertex="1" parent="1">
                    <mxGeometry x="530" y="230" width="20" height="20" as="geometry"/>
                </mxCell>
                <mxCell id="20" value="所有者权益&lt;br&gt;（未分配利润、沉淀利润" style="whiteSpace=wrap;html=1;fillColor=#60a917;fontColor=#ffffff;strokeColor=#2D7600;" vertex="1" parent="1">
                    <mxGeometry x="560" y="210" width="120" height="60" as="geometry"/>
                </mxCell>
                <mxCell id="21" value="收入" style="whiteSpace=wrap;html=1;fillColor=#6a00ff;fontColor=#ffffff;strokeColor=#3700CC;" vertex="1" parent="1">
                    <mxGeometry x="707" y="210" width="120" height="60" as="geometry"/>
                </mxCell>
                <mxCell id="22" value="+" style="text;html=1;align=center;verticalAlign=middle;resizable=0;points=[];autosize=1;strokeColor=none;fillColor=none;" vertex="1" parent="1">
                    <mxGeometry x="680" y="230" width="20" height="20" as="geometry"/>
                </mxCell>
                <mxCell id="23" value="借：增加&lt;br&gt;贷： 减少" style="text;html=1;align=center;verticalAlign=middle;resizable=0;points=[];autosize=1;strokeColor=none;fillColor=none;" vertex="1" parent="1">
                    <mxGeometry x="115" y="295" width="70" height="30" as="geometry"/>
                </mxCell>
                <mxCell id="24" value="借：减少&lt;br&gt;贷： 增加" style="text;html=1;align=center;verticalAlign=middle;resizable=0;points=[];autosize=1;strokeColor=none;fillColor=none;" vertex="1" parent="1">
                    <mxGeometry x="505" y="295" width="70" height="30" as="geometry"/>
                </mxCell>
            </root>
        </mxGraphModel>
    </diagram>
</mxfile>